Coordinates
nRows=257
nColumns=2
inDegrees=yes
endheader
time	ankle_angle_r	
7.68448	 -0.514776	
7.71774	 -0.499438	
7.75101	 -0.488934	
7.78427	 -0.482039	
7.81754	 -0.479542	
7.85081	 -0.481774	
7.88407	 -0.484188	
7.91734	 -0.487889	
7.9506	 -0.495684	
7.98387	 -0.499496	
8.01714	 -0.493570	
8.0504	 -0.484697	
8.08367	 -0.478468	
8.11694	 -0.474670	
8.1502	 -0.472657	
8.18347	 -0.471574	
8.21673	 -0.472863	
8.25	 -0.475950	
8.28327	 -0.473835	
8.31653	 -0.467158	
8.3498	 -0.467327	
8.38306	 -0.478502	
8.41633	 -0.494647	
8.4496	 -0.509052	
8.48286	 -0.516874	
8.51613	 -0.517870	
8.5494	 -0.515544	
8.58266	 -0.512139	
8.61593	 -0.509867	
8.64919	 -0.510256	
8.68246	 -0.511485	
8.71573	 -0.511000	
8.74899	 -0.506838	
8.78226	 -0.499129	
8.81552	 -0.491707	
8.84879	 -0.487223	
8.88206	 -0.485268	
8.91532	 -0.485338	
8.94859	 -0.485354	
8.98185	 -0.483286	
9.01512	 -0.480940	
9.04839	 -0.480031	
9.08165	 -0.480919	
9.11492	 -0.483871	
9.14819	 -0.486337	
9.18145	 -0.487121	
9.21472	 -0.488145	
9.24798	 -0.487490	
9.28125	 -0.483762	
9.31452	 -0.480563	
9.34778	 -0.478464	
9.38105	 -0.477071	
9.41431	 -0.479436	
9.44758	 -0.483530	
9.48085	 -0.484638	
9.51411	 -0.484982	
9.54738	 -0.487169	
9.58065	 -0.489332	
9.61391	 -0.490690	
9.64718	 -0.490988	
9.68044	 -0.490077	
9.71371	 -0.489784	
9.74698	 -0.489266	
9.78024	 -0.486967	
9.81351	 -0.486575	
9.84677	 -0.489967	
9.88004	 -0.494611	
9.91331	 -0.500162	
9.94657	 -0.505286	
9.97984	 -0.507426	
10.0131	 -0.508209	
10.0464	 -0.508902	
10.0796	 -0.508702	
10.1129	 -0.508003	
10.1462	 -0.507460	
10.1794	 -0.509906	
10.2127	 -0.517833	
10.246	 -0.526722	
10.2792	 -0.530966	
10.3125	 -0.530733	
10.3458	 -0.528957	
10.379	 -0.528585	
10.4123	 -0.529075	
10.4456	 -0.526832	
10.4788	 -0.523385	
10.5121	 -0.523168	
10.5454	 -0.525764	
10.5786	 -0.529654	
10.6119	 -0.534416	
10.6452	 -0.537339	
10.6784	 -0.536451	
10.7117	 -0.533430	
10.745	 -0.531662	
10.7782	 -0.534124	
10.8115	 -0.539278	
10.8448	 -0.541771	
10.878	 -0.540264	
10.9113	 -0.537361	
10.9446	 -0.535271	
10.9778	 -0.537208	
11.0111	 -0.542858	
11.0444	 -0.544228	
11.0776	 -0.537458	
11.1109	 -0.528363	
11.1442	 -0.522200	
11.1774	 -0.520859	
11.2107	 -0.523458	
11.244	 -0.525212	
11.2772	 -0.524399	
11.3105	 -0.522082	
11.3437	 -0.516408	
11.377	 -0.508085	
11.4103	 -0.500399	
11.4435	 -0.494655	
11.4768	 -0.491663	
11.5101	 -0.487954	
11.5433	 -0.479747	
11.5766	 -0.472703	
11.6099	 -0.471945	
11.6431	 -0.474165	
11.6764	 -0.476588	
11.7097	 -0.478199	
11.7429	 -0.477514	
11.7762	 -0.475890	
11.8095	 -0.474146	
11.8427	 -0.471381	
11.876	 -0.469186	
11.9093	 -0.467898	
11.9425	 -0.465239	
11.9758	 -0.461291	
12.0091	 -0.457586	
12.0423	 -0.455855	
12.0756	 -0.456810	
12.1089	 -0.455079	
12.1421	 -0.445037	
12.1754	 -0.431272	
12.2087	 -0.421596	
12.2419	 -0.417251	
12.2752	 -0.416770	
12.3085	 -0.419422	
12.3417	 -0.425024	
12.375	 -0.432906	
12.4083	 -0.437802	
12.4415	 -0.436293	
12.4748	 -0.433961	
12.5081	 -0.434600	
12.5413	 -0.436257	
12.5746	 -0.438643	
12.6079	 -0.441313	
12.6411	 -0.443083	
12.6744	 -0.444182	
12.7077	 -0.444033	
12.7409	 -0.444561	
12.7742	 -0.450277	
12.8075	 -0.460735	
12.8407	 -0.472894	
12.874	 -0.485737	
12.9073	 -0.497253	
12.9405	 -0.506222	
12.9738	 -0.513805	
13.0071	 -0.519387	
13.0403	 -0.521826	
13.0736	 -0.521121	
13.1069	 -0.517931	
13.1401	 -0.516632	
13.1734	 -0.520218	
13.2067	 -0.524543	
13.2399	 -0.527469	
13.2732	 -0.531676	
13.3065	 -0.535882	
13.3397	 -0.537202	
13.373	 -0.536614	
13.4062	 -0.535563	
13.4395	 -0.535477	
13.4728	 -0.537176	
13.506	 -0.538591	
13.5393	 -0.539045	
13.5726	 -0.538917	
13.6058	 -0.537205	
13.6391	 -0.536707	
13.6724	 -0.539922	
13.7056	 -0.542046	
13.7389	 -0.540550	
13.7722	 -0.539065	
13.8054	 -0.537879	
13.8387	 -0.535167	
13.872	 -0.531692	
13.9052	 -0.527936	
13.9385	 -0.524846	
13.9718	 -0.523518	
14.005	 -0.523080	
14.0383	 -0.524551	
14.0716	 -0.528675	
14.1048	 -0.531385	
14.1381	 -0.529745	
14.1714	 -0.524407	
14.2046	 -0.516353	
14.2379	 -0.508120	
14.2712	 -0.502286	
14.3044	 -0.499423	
14.3377	 -0.499438	
14.371	 -0.498786	
14.4042	 -0.493830	
14.4375	 -0.487858	
14.4708	 -0.484215	
14.504	 -0.481675	
14.5373	 -0.478922	
14.5706	 -0.474016	
14.6038	 -0.467061	
14.6371	 -0.462411	
14.6704	 -0.461122	
14.7036	 -0.461694	
14.7369	 -0.465285	
14.7702	 -0.470056	
14.8034	 -0.472290	
14.8367	 -0.472421	
14.87	 -0.469586	
14.9032	 -0.463714	
14.9365	 -0.461034	
14.9698	 -0.463430	
15.003	 -0.466908	
15.0363	 -0.471826	
15.0696	 -0.478535	
15.1028	 -0.483591	
15.1361	 -0.485965	
15.1694	 -0.485163	
15.2026	 -0.480510	
15.2359	 -0.476164	
15.2692	 -0.475310	
15.3024	 -0.477240	
15.3357	 -0.483508	
15.369	 -0.492467	
15.4022	 -0.496890	
15.4355	 -0.496015	
15.4687	 -0.495203	
15.502	 -0.496074	
15.5353	 -0.496988	
15.5685	 -0.496638	
15.6018	 -0.496162	
15.6351	 -0.499080	
15.6683	 -0.507215	
15.7016	 -0.518568	
15.7349	 -0.526434	
15.7681	 -0.525578	
15.8014	 -0.521883	
15.8347	 -0.522167	
15.8679	 -0.523184	
15.9012	 -0.522233	
15.9345	 -0.521642	
15.9677	 -0.523121	
16.001	 -0.528259	
16.0343	 -0.535365	
16.0675	 -0.539845	
16.1008	 -0.542329	
16.1341	 -0.540755	
16.1673	 -0.523479	
16.2006	 -0.488222	
